<?xml version="1.0" encoding="UTF-8" standalone="no"?>
<!-- Uploaded to: SVG Repo, www.svgrepo.com, Generator: SVG Repo Mixer Tools -->

<svg
   width="613.80701"
   height="613.80701"
   viewBox="0 0 18.41421 18.41421"
   fill="none"
   version="1.1"
   id="svg1826"
   xmlns="http://www.w3.org/2000/svg"
   xmlns:svg="http://www.w3.org/2000/svg">
  <defs
     id="defs1830" />
  <path
     d="M 1.41421,7.56066 0.7071,8.26776 0,7.56066 0.7071,6.85355 Z m 17,8 c 0,0.5523 -0.4477,1 -1,1 -0.5523,0 -1,-0.4477 -1,-1 z m -12.70711,-2.2929 -5,-5 1.41422,-1.41421 5,5.00001 z m -5,-6.41421 5,-5 1.41422,1.41422 -5,4.99999 z M 1.41421,6.56066 h 10 v 2 h -10 z m 17,7 v 2 h -2 v -2 z m -7,-7 c 3.866,0 7,3.134 7,7 h -2 c 0,-2.7614 -2.2386,-5 -5,-5 z"
     fill="#000000"
     id="path1824" />
</svg>
