<?xml version="1.0" encoding="UTF-8" standalone="no"?>
<!-- Created with Inkscape (http://www.inkscape.org/) -->

<svg
   width="283.46457"
   height="283.46457"
   viewBox="0 0 75.000001 75.000001"
   version="1.1"
   id="svg1157"
   inkscape:version="1.2 (dc2aedaf03, 2022-05-15)"
   sodipodi:docname="cube.svg"
   xmlns:inkscape="http://www.inkscape.org/namespaces/inkscape"
   xmlns:sodipodi="http://sodipodi.sourceforge.net/DTD/sodipodi-0.dtd"
   xmlns="http://www.w3.org/2000/svg"
   xmlns:svg="http://www.w3.org/2000/svg">
  <sodipodi:namedview
     id="namedview1159"
     pagecolor="#ffffff"
     bordercolor="#000000"
     borderopacity="0.25"
     inkscape:showpageshadow="2"
     inkscape:pageopacity="0.0"
     inkscape:pagecheckerboard="0"
     inkscape:deskcolor="#d1d1d1"
     inkscape:document-units="px"
     showgrid="false"
     inkscape:zoom="1.5839366"
     inkscape:cx="90.597061"
     inkscape:cy="224.12513"
     inkscape:window-width="1920"
     inkscape:window-height="1017"
     inkscape:window-x="-8"
     inkscape:window-y="-8"
     inkscape:window-maximized="1"
     inkscape:current-layer="svg1157" />
  <defs
     id="defs1154" />
  <path
     id="rect32695"
     style="fill:#000000;fill-opacity:1;stroke:none;stroke-width:1.0266"
     d="M 9.5832416,0 C 9.0145068,0 8.556424,0.45808291 8.556424,1.0268179 v 4.5055452 c 0,0.5687351 0.4580828,1.0268179 1.0268176,1.0268179 H 25.495395 c 0.568734,0 1.025643,-0.4580828 1.025643,-1.0268179 V 1.0268179 C 26.521038,0.45808291 26.064129,0 25.495395,0 Z M 29.543924,0 c -0.568735,0 -1.026818,0.45808291 -1.026818,1.0268179 v 4.5055452 c 0,0.5687351 0.458083,1.0268179 1.026818,1.0268179 h 15.912153 c 0.568734,0 1.026818,-0.4580828 1.026818,-1.0268179 V 1.0268179 C 46.482895,0.45808291 46.024811,0 45.456077,0 Z m 19.960682,0 c -0.568735,0 -1.025643,0.45808291 -1.025643,1.0268179 v 4.5055452 c 0,0.5687351 0.456908,1.0268179 1.025643,1.0268179 h 15.912152 c 0.568735,0 1.026818,-0.4580828 1.026818,-1.0268179 V 1.0268179 C 66.443576,0.45808291 65.985493,0 65.416758,0 Z M 1.0268179,8.556424 C 0.45808292,8.556424 0,9.0145068 0,9.5832416 V 25.495395 c 0,0.568734 0.45808292,1.025643 1.0268179,1.025643 h 4.5055452 c 0.5687351,0 1.0268179,-0.456909 1.0268179,-1.025643 V 9.5832416 c 0,-0.5687348 -0.4580828,-1.0268176 -1.0268179,-1.0268176 z m 7.5296061,0 v 4.491448 8.982893 4.490273 h 13.474341 3.46463 c 0.568734,0 1.025643,-0.456909 1.025643,-1.025643 V 14.073515 8.556424 h -4.490273 -8.982893 z m 19.960682,0 v 8.982895 4.491446 c 0,2.488217 2.003231,4.490273 4.491447,4.490273 H 37.5 41.991447 c 2.488216,0 4.491448,-2.002056 4.491448,-4.490273 V 17.539319 8.556424 h -4.491448 z m 19.961857,0 v 13.474341 3.46463 c 0,0.568734 0.456908,1.025643 1.025643,1.025643 h 11.42188 5.51709 V 13.047872 9.5832416 c 0,-0.5687348 -0.458083,-1.0268176 -1.026818,-1.0268176 h -3.464629 z m 20.988674,0 c -0.568736,0 -1.026818,0.4580828 -1.026818,1.0268176 V 25.495395 c 0,0.568734 0.458082,1.025643 1.026818,1.025643 h 4.505545 C 74.541917,26.521038 75,26.064129 75,25.495395 V 9.5832416 C 75,9.0145068 74.541917,8.556424 73.973182,8.556424 Z M 1.0268179,28.517106 C 0.45808292,28.517106 0,28.975189 0,29.543924 v 15.912153 c 0,0.568734 0.45808292,1.026818 1.0268179,1.026818 h 4.5055452 c 0.5687351,0 1.0268179,-0.458084 1.0268179,-1.026818 V 29.543924 c 0,-0.568735 -0.4580828,-1.026818 -1.0268179,-1.026818 z m 7.5296061,0 v 13.474341 4.491448 h 13.474341 c 2.488217,0 4.490273,-2.003232 4.490273,-4.491448 V 37.5 33.008553 c 0,-2.488216 -2.002056,-4.491447 -4.490273,-4.491447 z m 24.452129,0 c -2.488216,0 -4.491447,2.003231 -4.491447,4.491447 V 37.5 41.991447 c 0,2.488216 2.003231,4.491448 4.491447,4.491448 H 37.5 41.991447 c 2.488216,0 4.491448,-2.003232 4.491448,-4.491448 V 37.5 33.008553 c 0,-2.488216 -2.003232,-4.491447 -4.491448,-4.491447 H 37.5 Z m 19.960682,0 c -2.488216,0 -4.490272,2.003231 -4.490272,4.491447 V 37.5 41.991447 c 0,2.488216 2.002056,4.491448 4.490272,4.491448 H 66.443576 V 33.008553 29.543924 c 0,-0.568735 -0.458083,-1.026818 -1.026818,-1.026818 h -7.956076 z m 16.498402,0 c -0.568736,0 -1.026818,0.458083 -1.026818,1.026818 v 15.912153 c 0,0.568734 0.458082,1.026818 1.026818,1.026818 h 4.505545 C 74.541917,46.482895 75,46.024811 75,45.456077 V 29.543924 c 0,-0.568735 -0.458083,-1.026818 -1.026818,-1.026818 z M 1.0268179,48.478963 C 0.45808292,48.478963 0,48.935871 0,49.504606 v 15.912152 c 0,0.568735 0.45808292,1.026818 1.0268179,1.026818 h 4.5055452 c 0.5687351,0 1.0268179,-0.458083 1.0268179,-1.026818 V 49.504606 c 0,-0.568735 -0.4580828,-1.025643 -1.0268179,-1.025643 z m 7.5296061,0 v 13.473166 4.491447 h 13.474341 4.490273 V 52.969235 c 0,-2.488216 -2.002056,-4.490272 -4.490273,-4.490272 z m 24.452129,0 c -2.488216,0 -4.491447,2.002056 -4.491447,4.490272 v 4.491447 8.982894 h 13.474341 4.491448 V 52.969235 c 0,-2.488216 -2.003232,-4.490272 -4.491448,-4.490272 H 37.5 Z m 16.496053,0 c -0.568735,0 -1.025643,0.456908 -1.025643,1.025643 v 11.42188 5.51709 h 13.473166 4.491447 V 52.969235 49.504606 c 0,-0.568735 -0.458083,-1.025643 -1.026818,-1.025643 h -4.490272 z m 19.963031,0 c -0.568736,0 -1.026818,0.456908 -1.026818,1.025643 v 15.912152 c 0,0.568735 0.458082,1.026818 1.026818,1.026818 h 4.505545 C 74.541917,66.443576 75,65.985493 75,65.416758 V 49.504606 c 0,-0.568735 -0.458083,-1.025643 -1.026818,-1.025643 z M 9.5832416,68.440819 c -0.5687348,0 -1.0268176,0.458082 -1.0268176,1.026818 v 4.505545 C 8.556424,74.541917 9.0145068,75 9.5832416,75 H 25.495395 c 0.568734,0 1.025643,-0.458083 1.025643,-1.026818 v -4.505545 c 0,-0.568736 -0.456909,-1.026818 -1.025643,-1.026818 z m 19.9606824,0 c -0.568735,0 -1.026818,0.458082 -1.026818,1.026818 v 4.505545 C 28.517106,74.541917 28.975189,75 29.543924,75 h 15.912153 c 0.568734,0 1.026818,-0.458083 1.026818,-1.026818 v -4.505545 c 0,-0.568736 -0.458084,-1.026818 -1.026818,-1.026818 z m 19.960682,0 c -0.568735,0 -1.025643,0.458082 -1.025643,1.026818 v 4.505545 C 48.478963,74.541917 48.935871,75 49.504606,75 h 15.912152 c 0.568735,0 1.026818,-0.458083 1.026818,-1.026818 v -4.505545 c 0,-0.568736 -0.458083,-1.026818 -1.026818,-1.026818 z" />
</svg>
