<?xml version="1.0" encoding="UTF-8" standalone="no"?>
<!-- Created with Inkscape (http://www.inkscape.org/) -->

<svg
   width="66.141731"
   height="66.141731"
   viewBox="0 0 17.5 17.5"
   version="1.1"
   id="svg1157"
   inkscape:version="1.2 (dc2aedaf03, 2022-05-15)"
   sodipodi:docname="generate.svg"
   xmlns:inkscape="http://www.inkscape.org/namespaces/inkscape"
   xmlns:sodipodi="http://sodipodi.sourceforge.net/DTD/sodipodi-0.dtd"
   xmlns="http://www.w3.org/2000/svg"
   xmlns:svg="http://www.w3.org/2000/svg">
  <sodipodi:namedview
     id="namedview1159"
     pagecolor="#ffffff"
     bordercolor="#000000"
     borderopacity="0.25"
     inkscape:showpageshadow="2"
     inkscape:pageopacity="0.0"
     inkscape:pagecheckerboard="0"
     inkscape:deskcolor="#d1d1d1"
     inkscape:document-units="px"
     showgrid="false"
     inkscape:zoom="3.1678732"
     inkscape:cx="-32.671762"
     inkscape:cy="49.875734"
     inkscape:window-width="1920"
     inkscape:window-height="1017"
     inkscape:window-x="-8"
     inkscape:window-y="-8"
     inkscape:window-maximized="1"
     inkscape:current-layer="svg1157" />
  <defs
     id="defs1154" />
  <path
     id="path57885"
     style="fill:#000000;stroke-linecap:round;stroke-linejoin:round;-inkscape-stroke:none"
     d="M 0.750084,0 A 0.750075,0.750075 0 0 0 0,0.750084 v 2.9998016 a 0.75,0.75 0 0 0 0.750084,0.750084 0.75,0.75 0 0 0 0.7498169,-0.750084 V 1.4999009 H 3.7498856 A 0.75,0.75 0 0 0 4.4999696,0.750084 0.75,0.75 0 0 0 3.7498856,0 Z m 6.9998931,0 a 0.75,0.75 0 0 0 -0.750084,0.750084 0.75,0.75 0 0 0 0.750084,0.7498169 h 2.000046 A 0.75,0.75 0 0 0 10.500107,0.750084 0.75,0.75 0 0 0 9.7500231,0 Z m 6.0001369,0 a 0.75,0.75 0 0 0 -0.750083,0.750084 0.75,0.75 0 0 0 0.750083,0.7498169 h 2.249985 V 3.7498856 A 0.75,0.75 0 0 0 16.749916,4.4999696 0.75,0.75 0 0 0 17.5,3.7498856 V 0.750084 A 0.750075,0.750075 0 0 0 16.749916,0 Z M 8.7500001,4.0000916 A 0.75,0.75 0 0 0 7.9999161,4.7499085 V 7.9999161 H 4.7499085 a 0.75,0.75 0 0 0 -0.7498169,0.750084 0.75,0.75 0 0 0 0.7498169,0.750084 h 3.2500076 v 3.2500079 a 0.75,0.75 0 0 0 0.750084,0.749816 0.75,0.75 0 0 0 0.750084,-0.749816 V 9.5000841 h 3.2500079 a 0.75,0.75 0 0 0 0.749816,-0.750084 0.75,0.75 0 0 0 -0.749816,-0.750084 H 9.5000841 V 4.7499085 A 0.75,0.75 0 0 0 8.7500001,4.0000916 Z M 0.750084,6.9998931 A 0.75,0.75 0 0 0 0,7.7499771 v 2.000046 A 0.75,0.75 0 0 0 0.750084,10.500107 0.75,0.75 0 0 0 1.4999009,9.7500231 V 7.7499771 A 0.75,0.75 0 0 0 0.750084,6.9998931 Z m 15.999832,0 a 0.75,0.75 0 0 0 -0.749817,0.750084 v 2.000046 A 0.75,0.75 0 0 0 16.749916,10.500107 0.75,0.75 0 0 0 17.5,9.7500231 V 7.7499771 A 0.75,0.75 0 0 0 16.749916,6.9998931 Z M 0.750084,13.000031 A 0.75,0.75 0 0 0 0,13.750114 v 2.999802 A 0.750075,0.750075 0 0 0 0.750084,17.5 h 2.9998016 a 0.75,0.75 0 0 0 0.750084,-0.750084 0.75,0.75 0 0 0 -0.750084,-0.749817 H 1.4999009 V 13.750114 A 0.75,0.75 0 0 0 0.750084,13.000031 Z m 15.999832,0 a 0.75,0.75 0 0 0 -0.749817,0.750083 v 2.249985 H 13.750114 A 0.75,0.75 0 0 0 13.000031,16.749916 0.75,0.75 0 0 0 13.750114,17.5 h 2.999802 A 0.750075,0.750075 0 0 0 17.5,16.749916 V 13.750114 A 0.75,0.75 0 0 0 16.749916,13.000031 Z M 7.7499771,16.000099 A 0.75,0.75 0 0 0 6.9998931,16.749916 0.75,0.75 0 0 0 7.7499771,17.5 h 2.000046 A 0.75,0.75 0 0 0 10.500107,16.749916 0.75,0.75 0 0 0 9.7500231,16.000099 Z" />
</svg>
